# xmcd
#
# Track frame offsets: 
#        150
#        5445
#        39672
#        108415
#        158900
#        180672
#        201972
#        236637
#        273950
#
# Disc length: 4085 seconds
#
# Revision: 0
# Processed by: cddbd v1.5.1PL0 Copyright (c) Steve Scherf et al.
# Submitted via: ExactAudioCopy v0.95a5
#
DISCID=730ff309
DTITLE=John Paul and the Hellhounds - Alive and Smokin' at B.B.'s
DYEAR=1998
DGENRE=Blues
TTITLE0=Introduction: Lindsay Shannon, Proprietor
TTITLE1=I Wish You Would
TTITLE2=One More Mile/Help Me
TTITLE3=Po Boy
TTITLE4=Nadine
TTITLE5=Lonesome Train
TTITLE6=party Girl
TTITLE7=MComb/Hard Times (revisited)
TTITLE8=Blues Heaven
EXTD=
EXTT0=
EXTT1=
EXTT2=
EXTT3=
EXTT4=
EXTT5=
EXTT6=
EXTT7=
EXTT8=
PLAYORDER=
